<svg xmlns="http://www.w3.org/2000/svg" width="452" height="528" viewBox="0 0 452 528"><path d="M 449 36 L 448 37 L 445 37 L 444 38 L 442 38 L 441 39 L 440 39 L 439 40 L 437 40 L 436 41 L 433 41 L 432 42 L 429 42 L 428 43 L 426 43 L 425 44 L 423 44 L 422 45 L 420 45 L 419 46 L 417 46 L 416 47 L 414 47 L 413 48 L 411 48 L 410 49 L 408 49 L 407 50 L 405 50 L 404 51 L 402 51 L 401 52 L 399 52 L 398 53 L 395 53 L 394 54 L 392 54 L 391 55 L 389 55 L 388 56 L 386 56 L 385 57 L 383 57 L 382 58 L 379 58 L 378 59 L 376 59 L 375 60 L 373 60 L 372 61 L 370 61 L 369 62 L 367 62 L 366 63 L 364 63 L 363 64 L 361 64 L 360 65 L 358 65 L 357 66 L 355 66 L 354 67 L 352 67 L 351 68 L 349 68 L 348 69 L 345 69 L 344 70 L 343 70 L 342 71 L 339 71 L 338 72 L 336 72 L 335 73 L 333 73 L 332 74 L 330 74 L 329 75 L 327 75 L 326 76 L 323 76 L 322 77 L 321 77 L 320 78 L 318 78 L 317 79 L 315 79 L 314 80 L 312 80 L 311 81 L 309 81 L 308 82 L 306 82 L 305 83 L 303 83 L 303 84 L 305 84 L 306 85 L 308 85 L 309 86 L 311 86 L 312 87 L 314 87 L 315 88 L 317 88 L 318 89 L 320 89 L 321 90 L 323 90 L 324 91 L 326 91 L 327 92 L 329 92 L 330 93 L 332 93 L 333 94 L 334 94 L 335 95 L 337 95 L 338 96 L 340 96 L 341 97 L 342 97 L 343 98 L 345 98 L 346 99 L 348 99 L 349 100 L 351 100 L 352 101 L 352 102 L 351 103 L 351 104 L 347 108 L 347 109 L 344 112 L 344 113 L 340 117 L 340 118 L 335 123 L 335 124 L 332 127 L 332 128 L 327 133 L 327 134 L 321 140 L 321 141 L 316 146 L 316 147 L 306 157 L 306 158 L 297 167 L 297 168 L 294 171 L 293 171 L 293 172 L 261 204 L 260 204 L 247 217 L 246 217 L 238 225 L 237 225 L 231 231 L 230 231 L 225 236 L 224 236 L 218 242 L 217 242 L 212 247 L 211 247 L 208 250 L 207 250 L 204 253 L 203 253 L 199 257 L 198 257 L 194 261 L 193 261 L 190 264 L 189 264 L 187 266 L 186 266 L 183 269 L 182 269 L 179 272 L 178 272 L 175 275 L 174 275 L 172 277 L 171 277 L 168 280 L 167 280 L 165 282 L 164 282 L 162 284 L 161 284 L 159 286 L 158 286 L 155 289 L 154 289 L 152 291 L 151 291 L 149 293 L 148 293 L 146 295 L 145 295 L 143 297 L 142 297 L 140 299 L 139 299 L 138 300 L 137 300 L 135 302 L 134 302 L 132 304 L 131 304 L 129 306 L 128 306 L 127 307 L 126 307 L 124 309 L 123 309 L 121 311 L 120 311 L 119 312 L 118 312 L 117 313 L 116 313 L 114 315 L 113 315 L 112 316 L 111 316 L 110 317 L 109 317 L 107 319 L 106 319 L 105 320 L 104 320 L 102 322 L 101 322 L 100 323 L 99 323 L 98 324 L 97 324 L 95 326 L 94 326 L 93 327 L 92 327 L 91 328 L 90 328 L 89 329 L 88 329 L 86 331 L 85 331 L 84 332 L 83 332 L 82 333 L 81 333 L 80 334 L 79 334 L 78 335 L 77 335 L 76 336 L 75 336 L 74 337 L 73 337 L 72 338 L 71 338 L 69 340 L 68 340 L 67 341 L 66 341 L 65 342 L 63 342 L 63 343 L 65 343 L 66 342 L 71 342 L 72 341 L 75 341 L 76 340 L 78 340 L 79 339 L 82 339 L 83 338 L 86 338 L 87 337 L 89 337 L 90 336 L 93 336 L 94 335 L 96 335 L 97 334 L 99 334 L 100 333 L 103 333 L 104 332 L 106 332 L 107 331 L 109 331 L 110 330 L 112 330 L 113 329 L 115 329 L 116 328 L 118 328 L 119 327 L 121 327 L 122 326 L 123 326 L 124 325 L 126 325 L 127 324 L 129 324 L 130 323 L 131 323 L 132 322 L 134 322 L 135 321 L 136 321 L 137 320 L 139 320 L 140 319 L 141 319 L 142 318 L 144 318 L 145 317 L 146 317 L 147 316 L 149 316 L 150 315 L 151 315 L 152 314 L 153 314 L 154 313 L 156 313 L 157 312 L 158 312 L 159 311 L 160 311 L 161 310 L 163 310 L 164 309 L 165 309 L 166 308 L 167 308 L 168 307 L 169 307 L 170 306 L 171 306 L 172 305 L 173 305 L 174 304 L 176 304 L 177 303 L 178 303 L 179 302 L 180 302 L 181 301 L 182 301 L 183 300 L 184 300 L 185 299 L 186 299 L 187 298 L 188 298 L 189 297 L 190 297 L 191 296 L 192 296 L 193 295 L 195 295 L 197 293 L 198 293 L 199 292 L 200 292 L 201 291 L 202 291 L 203 290 L 204 290 L 205 289 L 206 289 L 208 287 L 209 287 L 210 286 L 211 286 L 212 285 L 213 285 L 214 284 L 215 284 L 216 283 L 217 283 L 219 281 L 220 281 L 221 280 L 222 280 L 223 279 L 224 279 L 225 278 L 226 278 L 228 276 L 229 276 L 230 275 L 231 275 L 233 273 L 234 273 L 235 272 L 236 272 L 238 270 L 239 270 L 240 269 L 241 269 L 242 268 L 243 268 L 245 266 L 246 266 L 248 264 L 249 264 L 251 262 L 252 262 L 253 261 L 254 261 L 256 259 L 257 259 L 259 257 L 260 257 L 262 255 L 263 255 L 265 253 L 266 253 L 268 251 L 269 251 L 271 249 L 272 249 L 273 248 L 274 248 L 276 246 L 277 246 L 280 243 L 281 243 L 284 240 L 285 240 L 287 238 L 288 238 L 291 235 L 292 235 L 294 233 L 295 233 L 298 230 L 299 230 L 302 227 L 303 227 L 306 224 L 307 224 L 310 221 L 311 221 L 315 217 L 316 217 L 319 214 L 320 214 L 324 210 L 325 210 L 331 204 L 332 204 L 336 200 L 337 200 L 342 195 L 343 195 L 351 187 L 352 187 L 361 178 L 362 178 L 403 137 L 403 136 L 410 129 L 410 128 L 411 127 L 412 127 L 416 131 L 416 132 L 423 139 L 423 140 L 428 145 L 428 146 L 435 153 L 435 154 L 440 159 L 440 157 L 441 156 L 441 149 L 442 148 L 442 138 L 443 137 L 443 128 L 444 127 L 444 116 L 445 115 L 445 104 L 446 103 L 446 94 L 447 93 L 447 81 L 448 80 L 448 68 L 449 67 L 449 57 L 450 56 L 450 46 L 451 45 L 451 36 Z" fill="#1A73E8" /><path d="M 219 0 L 218 1 L 216 1 L 215 2 L 213 2 L 212 3 L 211 3 L 210 4 L 209 4 L 208 5 L 206 5 L 205 6 L 203 6 L 202 7 L 201 7 L 200 8 L 199 8 L 198 9 L 195 9 L 194 10 L 193 10 L 192 11 L 191 11 L 190 12 L 188 12 L 187 13 L 186 13 L 185 14 L 183 14 L 182 15 L 181 15 L 180 16 L 179 16 L 178 17 L 177 17 L 176 18 L 174 18 L 173 19 L 171 19 L 170 20 L 169 20 L 168 21 L 167 21 L 166 22 L 165 22 L 164 23 L 162 23 L 161 24 L 159 24 L 158 25 L 157 25 L 156 26 L 154 26 L 153 27 L 152 27 L 151 28 L 150 28 L 149 29 L 147 29 L 146 30 L 145 30 L 144 31 L 142 31 L 141 32 L 140 32 L 139 33 L 138 33 L 137 34 L 135 34 L 134 35 L 133 35 L 132 36 L 131 36 L 130 37 L 128 37 L 127 38 L 125 38 L 124 39 L 123 39 L 122 40 L 121 40 L 120 41 L 119 41 L 118 42 L 115 42 L 114 43 L 113 43 L 112 44 L 111 44 L 110 45 L 108 45 L 107 46 L 106 46 L 105 47 L 104 47 L 103 48 L 101 48 L 100 49 L 99 49 L 98 50 L 97 50 L 96 51 L 94 51 L 93 52 L 92 52 L 91 53 L 92 52 L 91 53 L 90 53 L 89 54 L 87 54 L 86 55 L 85 55 L 84 56 L 82 56 L 81 57 L 80 57 L 79 58 L 77 58 L 76 59 L 75 59 L 74 60 L 72 60 L 71 61 L 70 61 L 69 62 L 68 62 L 67 63 L 65 63 L 64 64 L 63 64 L 62 65 L 60 65 L 59 66 L 58 66 L 57 67 L 55 67 L 54 68 L 53 68 L 52 69 L 51 69 L 50 70 L 49 70 L 48 71 L 46 71 L 45 72 L 43 72 L 42 73 L 41 73 L 40 74 L 39 74 L 38 75 L 36 75 L 35 76 L 34 76 L 33 77 L 31 77 L 30 78 L 29 78 L 28 79 L 26 79 L 25 80 L 24 80 L 23 81 L 22 81 L 21 82 L 19 82 L 18 83 L 17 83 L 16 84 L 15 84 L 14 85 L 12 85 L 11 86 L 10 86 L 9 87 L 7 87 L 6 88 L 4 88 L 2 90 L 2 91 L 1 92 L 1 346 L 2 347 L 2 353 L 3 354 L 3 356 L 4 357 L 4 359 L 5 360 L 5 361 L 7 363 L 7 364 L 8 365 L 8 366 L 10 368 L 10 369 L 12 371 L 12 372 L 14 374 L 14 375 L 19 380 L 19 381 L 43 405 L 44 405 L 47 408 L 48 408 L 54 414 L 55 414 L 60 419 L 61 419 L 63 421 L 64 421 L 67 424 L 68 424 L 72 428 L 73 428 L 76 431 L 77 431 L 80 434 L 81 434 L 84 437 L 85 437 L 87 439 L 88 439 L 91 442 L 92 442 L 94 444 L 95 444 L 97 446 L 98 446 L 101 449 L 102 449 L 104 451 L 105 451 L 107 453 L 108 453 L 110 455 L 111 455 L 112 456 L 113 456 L 115 458 L 116 458 L 119 461 L 120 461 L 121 462 L 122 462 L 125 465 L 126 465 L 128 467 L 129 467 L 131 469 L 132 469 L 133 470 L 134 470 L 136 472 L 137 472 L 139 474 L 140 474 L 142 476 L 143 476 L 144 477 L 145 477 L 147 479 L 148 479 L 150 481 L 151 481 L 153 483 L 154 483 L 156 485 L 157 485 L 159 487 L 160 487 L 161 488 L 162 488 L 163 489 L 164 489 L 166 491 L 167 491 L 169 493 L 170 493 L 172 495 L 173 495 L 175 497 L 176 497 L 177 498 L 178 498 L 180 500 L 181 500 L 183 502 L 184 502 L 185 503 L 186 503 L 188 505 L 189 505 L 191 507 L 192 507 L 193 508 L 194 508 L 196 510 L 197 510 L 199 512 L 200 512 L 202 514 L 203 514 L 204 515 L 205 515 L 207 517 L 208 517 L 209 518 L 210 518 L 212 520 L 213 520 L 214 521 L 215 521 L 217 523 L 218 523 L 220 525 L 221 525 L 222 526 L 224 526 L 225 525 L 226 525 L 227 524 L 228 524 L 230 522 L 231 522 L 233 520 L 234 520 L 236 518 L 237 518 L 238 517 L 239 517 L 241 515 L 242 515 L 243 514 L 244 514 L 246 512 L 247 512 L 249 510 L 250 510 L 252 508 L 253 508 L 254 507 L 255 507 L 256 506 L 257 506 L 259 504 L 260 504 L 262 502 L 263 502 L 264 501 L 265 501 L 267 499 L 268 499 L 270 497 L 271 497 L 273 495 L 274 495 L 276 493 L 277 493 L 278 492 L 279 492 L 281 490 L 282 490 L 284 488 L 285 488 L 286 487 L 287 487 L 289 485 L 290 485 L 292 483 L 293 483 L 294 482 L 295 482 L 298 479 L 299 479 L 300 478 L 301 478 L 303 476 L 304 476 L 305 475 L 306 475 L 308 473 L 309 473 L 311 471 L 312 471 L 314 469 L 315 469 L 317 467 L 318 467 L 320 465 L 321 465 L 322 464 L 323 464 L 326 461 L 327 461 L 329 459 L 330 459 L 332 457 L 333 457 L 335 455 L 336 455 L 337 454 L 338 454 L 341 451 L 342 451 L 344 449 L 345 449 L 348 446 L 349 446 L 351 444 L 352 444 L 354 442 L 355 442 L 357 440 L 358 440 L 361 437 L 362 437 L 365 434 L 366 434 L 369 431 L 370 431 L 373 428 L 374 428 L 377 425 L 378 425 L 382 421 L 383 421 L 386 418 L 387 418 L 392 413 L 393 413 L 397 409 L 398 409 L 404 403 L 405 403 L 418 390 L 419 390 L 419 389 L 427 381 L 427 380 L 431 376 L 431 375 L 434 372 L 434 371 L 436 369 L 436 368 L 438 366 L 438 365 L 439 364 L 439 363 L 440 362 L 440 361 L 441 360 L 441 359 L 442 358 L 442 357 L 443 356 L 443 354 L 444 353 L 444 302 L 445 301 L 445 298 L 444 297 L 444 190 L 443 189 L 443 188 L 442 188 L 438 184 L 438 183 L 433 178 L 432 178 L 428 174 L 428 173 L 414 159 L 412 159 L 411 160 L 411 161 L 376 196 L 375 196 L 368 203 L 367 203 L 360 210 L 359 210 L 354 215 L 353 215 L 350 218 L 349 218 L 345 222 L 344 222 L 340 226 L 339 226 L 336 229 L 335 229 L 332 232 L 331 232 L 328 235 L 327 235 L 325 237 L 324 237 L 321 240 L 320 240 L 317 243 L 316 243 L 314 245 L 313 245 L 311 247 L 310 247 L 308 249 L 307 249 L 305 251 L 304 251 L 302 253 L 301 253 L 299 255 L 298 255 L 296 257 L 295 257 L 293 259 L 292 259 L 291 260 L 290 260 L 288 262 L 287 262 L 286 263 L 285 263 L 283 265 L 282 265 L 281 266 L 280 266 L 278 268 L 277 268 L 276 269 L 275 269 L 274 270 L 273 270 L 272 271 L 271 271 L 269 273 L 268 273 L 267 274 L 266 274 L 264 276 L 263 276 L 262 277 L 261 277 L 260 278 L 259 278 L 258 279 L 257 279 L 256 280 L 255 280 L 254 281 L 253 281 L 252 282 L 251 282 L 250 283 L 249 283 L 248 284 L 247 284 L 246 285 L 245 285 L 244 286 L 243 286 L 242 287 L 241 287 L 240 288 L 239 288 L 238 289 L 237 289 L 236 290 L 235 290 L 234 291 L 233 291 L 232 292 L 231 292 L 231 412 L 232 412 L 233 411 L 234 411 L 235 410 L 236 410 L 237 409 L 238 409 L 239 408 L 240 408 L 241 407 L 242 407 L 243 406 L 244 406 L 246 404 L 247 404 L 249 402 L 250 402 L 251 401 L 252 401 L 253 400 L 254 400 L 256 398 L 257 398 L 258 397 L 259 397 L 261 395 L 262 395 L 263 394 L 264 394 L 266 392 L 267 392 L 268 391 L 269 391 L 271 389 L 272 389 L 274 387 L 275 387 L 277 385 L 278 385 L 280 383 L 281 383 L 284 380 L 285 380 L 287 378 L 288 378 L 291 375 L 292 375 L 297 370 L 298 370 L 304 364 L 305 364 L 318 351 L 318 350 L 321 347 L 321 346 L 324 343 L 324 341 L 278 341 L 277 340 L 277 316 L 278 315 L 279 315 L 280 314 L 281 314 L 282 313 L 283 313 L 284 312 L 285 312 L 286 311 L 287 311 L 288 310 L 289 310 L 290 309 L 291 309 L 293 307 L 294 307 L 295 306 L 296 306 L 297 305 L 298 305 L 300 303 L 301 303 L 302 302 L 303 302 L 304 301 L 305 301 L 307 299 L 308 299 L 309 298 L 310 298 L 312 296 L 313 296 L 314 295 L 315 295 L 316 294 L 317 294 L 319 292 L 320 292 L 322 290 L 323 290 L 324 289 L 325 289 L 328 286 L 329 286 L 331 284 L 332 284 L 333 283 L 334 283 L 336 281 L 337 281 L 339 279 L 340 279 L 342 277 L 343 277 L 345 275 L 346 275 L 349 272 L 350 272 L 352 270 L 353 270 L 356 267 L 357 267 L 360 264 L 361 264 L 363 262 L 364 262 L 366 260 L 367 260 L 370 257 L 371 257 L 375 253 L 376 253 L 379 250 L 380 250 L 384 246 L 385 246 L 388 243 L 389 243 L 394 238 L 395 238 L 396 237 L 397 238 L 397 338 L 396 339 L 396 343 L 395 344 L 395 346 L 393 348 L 393 349 L 390 352 L 390 353 L 385 358 L 384 358 L 377 365 L 376 365 L 369 372 L 368 372 L 364 376 L 363 376 L 359 380 L 358 380 L 355 383 L 354 383 L 350 387 L 349 387 L 346 390 L 345 390 L 343 392 L 342 392 L 340 394 L 339 394 L 336 397 L 335 397 L 333 399 L 332 399 L 328 403 L 327 403 L 326 404 L 325 404 L 322 407 L 321 407 L 319 409 L 318 409 L 316 411 L 315 411 L 313 413 L 312 413 L 310 415 L 309 415 L 307 417 L 306 417 L 304 419 L 303 419 L 301 421 L 300 421 L 298 423 L 297 423 L 295 425 L 294 425 L 292 427 L 291 427 L 290 428 L 289 428 L 287 430 L 286 430 L 284 432 L 283 432 L 280 435 L 279 435 L 278 436 L 277 436 L 275 438 L 274 438 L 272 440 L 271 440 L 270 441 L 269 441 L 267 443 L 266 443 L 264 445 L 263 445 L 261 447 L 260 447 L 259 448 L 258 448 L 256 450 L 255 450 L 253 452 L 252 452 L 250 454 L 249 454 L 248 455 L 247 455 L 245 457 L 244 457 L 243 458 L 242 458 L 240 460 L 239 460 L 238 461 L 237 461 L 235 463 L 234 463 L 232 465 L 231 465 L 229 467 L 228 467 L 226 469 L 225 469 L 224 470 L 222 470 L 220 468 L 219 468 L 218 467 L 217 467 L 215 465 L 214 465 L 212 463 L 211 463 L 209 461 L 208 461 L 207 460 L 206 460 L 204 458 L 203 458 L 201 456 L 200 456 L 199 455 L 198 455 L 196 453 L 195 453 L 193 451 L 192 451 L 191 450 L 190 450 L 188 448 L 187 448 L 185 446 L 184 446 L 183 445 L 182 445 L 180 443 L 179 443 L 177 441 L 176 441 L 175 440 L 174 440 L 172 438 L 171 438 L 169 436 L 168 436 L 166 434 L 165 434 L 163 432 L 162 432 L 161 431 L 160 431 L 158 429 L 157 429 L 155 427 L 154 427 L 152 425 L 151 425 L 149 423 L 148 423 L 146 421 L 145 421 L 143 419 L 142 419 L 140 417 L 139 417 L 137 415 L 136 415 L 134 413 L 133 413 L 131 411 L 130 411 L 128 409 L 127 409 L 125 407 L 124 407 L 121 404 L 120 404 L 118 402 L 117 402 L 115 400 L 114 400 L 111 397 L 110 397 L 108 395 L 107 395 L 104 392 L 103 392 L 100 389 L 99 389 L 96 386 L 95 386 L 92 383 L 91 383 L 88 380 L 87 380 L 83 376 L 82 376 L 78 372 L 77 372 L 71 366 L 70 366 L 65 361 L 64 361 L 51 348 L 51 347 L 50 346 L 50 345 L 49 344 L 49 343 L 48 342 L 48 340 L 47 339 L 47 318 L 48 317 L 48 125 L 49 124 L 51 124 L 52 123 L 53 123 L 54 122 L 56 122 L 57 121 L 58 121 L 59 120 L 61 120 L 62 119 L 63 119 L 64 118 L 66 118 L 67 117 L 68 117 L 69 116 L 71 116 L 72 115 L 73 115 L 74 114 L 75 114 L 76 113 L 78 113 L 79 112 L 80 112 L 81 111 L 82 111 L 83 110 L 85 110 L 86 109 L 87 109 L 88 108 L 89 108 L 90 107 L 92 107 L 93 106 L 94 106 L 95 105 L 97 105 L 98 104 L 99 104 L 100 103 L 102 103 L 103 102 L 104 102 L 105 101 L 107 101 L 108 100 L 109 100 L 110 99 L 111 99 L 112 98 L 114 98 L 115 97 L 116 97 L 117 96 L 119 96 L 120 95 L 121 95 L 122 94 L 123 94 L 124 93 L 126 93 L 127 92 L 128 92 L 129 91 L 131 91 L 132 90 L 133 90 L 134 89 L 135 89 L 136 88 L 138 88 L 139 87 L 141 87 L 142 86 L 143 86 L 144 85 L 145 85 L 146 84 L 148 84 L 149 83 L 150 83 L 151 82 L 152 82 L 153 81 L 154 81 L 155 80 L 157 80 L 158 79 L 159 79 L 160 78 L 162 78 L 163 77 L 164 77 L 165 76 L 166 76 L 167 75 L 169 75 L 170 74 L 171 74 L 172 73 L 173 73 L 174 72 L 176 72 L 177 71 L 178 71 L 179 70 L 181 70 L 182 69 L 183 69 L 184 68 L 185 68 L 186 67 L 188 67 L 189 66 L 190 66 L 191 65 L 193 65 L 194 64 L 195 64 L 196 63 L 197 63 L 198 62 L 199 62 L 200 61 L 202 61 L 203 60 L 204 60 L 205 59 L 206 59 L 207 58 L 209 58 L 210 57 L 211 57 L 212 56 L 213 56 L 214 55 L 216 55 L 217 54 L 218 54 L 219 53 L 221 53 L 222 52 L 225 52 L 226 53 L 227 53 L 228 54 L 230 54 L 231 55 L 232 55 L 233 56 L 235 56 L 236 57 L 237 57 L 238 58 L 240 58 L 241 59 L 242 59 L 243 60 L 244 60 L 245 61 L 246 61 L 247 62 L 249 62 L 250 63 L 252 63 L 253 64 L 254 64 L 255 65 L 256 65 L 257 66 L 258 66 L 259 67 L 261 67 L 262 68 L 263 68 L 264 69 L 266 69 L 267 70 L 268 70 L 269 71 L 271 71 L 272 72 L 273 72 L 274 73 L 276 73 L 277 74 L 278 74 L 279 73 L 282 73 L 283 72 L 285 72 L 286 71 L 289 71 L 290 70 L 293 70 L 294 69 L 296 69 L 297 68 L 300 68 L 301 67 L 303 67 L 304 66 L 306 66 L 307 65 L 309 65 L 310 64 L 313 64 L 314 63 L 315 63 L 316 62 L 319 62 L 320 61 L 323 61 L 324 60 L 326 60 L 327 59 L 329 59 L 330 58 L 332 58 L 333 57 L 336 57 L 337 56 L 340 56 L 341 55 L 343 55 L 344 54 L 347 54 L 348 53 L 350 53 L 351 52 L 354 52 L 354 51 L 353 50 L 351 50 L 350 49 L 349 49 L 348 48 L 346 48 L 345 47 L 344 47 L 343 46 L 342 46 L 341 45 L 339 45 L 338 44 L 337 44 L 336 43 L 334 43 L 333 42 L 331 42 L 330 41 L 329 41 L 328 40 L 326 40 L 325 39 L 324 39 L 323 38 L 322 38 L 321 37 L 319 37 L 318 36 L 317 36 L 316 35 L 314 35 L 313 34 L 312 34 L 311 33 L 309 33 L 308 32 L 307 32 L 306 31 L 304 31 L 303 30 L 302 30 L 301 29 L 299 29 L 298 28 L 297 28 L 296 27 L 295 27 L 294 26 L 292 26 L 291 25 L 290 25 L 289 24 L 286 24 L 285 23 L 284 23 L 283 22 L 282 22 L 281 21 L 279 21 L 278 20 L 277 20 L 276 19 L 275 19 L 274 18 L 272 18 L 271 17 L 269 17 L 268 16 L 267 16 L 266 15 L 265 15 L 264 14 L 262 14 L 261 13 L 260 13 L 259 12 L 257 12 L 256 11 L 255 11 L 254 10 L 252 10 L 251 9 L 250 9 L 249 8 L 247 8 L 246 7 L 245 7 L 244 6 L 242 6 L 241 5 L 239 5 L 238 4 L 237 4 L 236 3 L 234 3 L 233 2 L 231 2 L 230 1 L 228 1 L 227 0 Z" fill="#1A73E8" /></svg>